<svg xmlns="http://www.w3.org/2000/svg" version="1.1" xmlns:xlink="http://www.w3.org/1999/xlink" xmlns:svgjs="http://svgjs.dev/svgjs" width="1000" height="1000" viewBox="0 0 1000 1000"><rect width="1000" height="1000" fill="#096a2e"></rect><g transform="matrix(0.7,0,0,0.7,149.84897959183667,150.19913061224486)"><svg viewBox="0 0 343 343" data-background-color="#096a2e" preserveAspectRatio="xMidYMid meet" height="999" width="1000" xmlns="http://www.w3.org/2000/svg" xmlns:xlink="http://www.w3.org/1999/xlink"><g id="tight-bounds" transform="matrix(1,0,0,1,0.0740000000000407,0.07400000000001228)"><svg viewBox="0 0 342.85155851775386 342.85155851775386" height="342.85155851775386" width="342.85155851775386"><g><svg></svg></g><g><svg viewBox="0 0 342.85155851775386 342.85155851775386" height="342.85155851775386" width="342.85155851775386"><g><path d="M0 171.426c0-94.676 76.75-171.426 171.426-171.426 94.676 0 171.426 76.75 171.426 171.426 0 94.676-76.75 171.426-171.426 171.426-94.676 0-171.426-76.75-171.426-171.426zM171.426 340.435c93.341 0 169.009-75.668 169.009-169.009 0-93.341-75.668-169.009-169.009-169.01-93.341 0-169.009 75.668-169.01 169.01 0 93.341 75.668 169.009 169.01 169.009z" data-fill-palette-color="tertiary" fill="#ffffff" stroke="transparent"></path><ellipse rx="164.56874808852186" ry="164.56874808852186" cx="171.42577925887693" cy="171.42577925887693" fill="#ffffff" stroke="transparent" stroke-width="0" fill-opacity="1" data-fill-palette-color="tertiary"></ellipse></g><g transform="matrix(1,0,0,1,64.84655864529837,136.35157099298442)"><svg viewBox="0 0 213.1584412271571 70.14841653178505" height="70.14841653178505" width="213.1584412271571"><g><svg viewBox="0 0 213.1584412271571 70.14841653178505" height="70.14841653178505" width="213.1584412271571"><g><svg viewBox="0 0 213.1584412271571 70.14841653178505" height="70.14841653178505" width="213.1584412271571"><g transform="matrix(1,0,0,1,0,43.35453563154188)"><svg viewBox="0 0 213.1584412271571 26.793880900243174" height="26.793880900243174" width="213.1584412271571"><g id="textblocktransform"><svg viewBox="0 0 213.1584412271571 26.793880900243174" height="26.793880900243174" width="213.1584412271571" id="textblock"><g><svg viewBox="0 0 213.1584412271571 26.793880900243174" height="26.793880900243174" width="213.1584412271571"><g transform="matrix(1,0,0,1,0,0)"><svg width="213.1584412271571" viewBox="3.8499999046325684 -33.70000076293945 268.0799865722656 33.70000076293945" height="26.793880900243174" data-palette-color="#096a2e"><path d="M13.7-16.65L27.25 0 22 0 8.7-16.65 21.55-33.7 26.55-33.7 13.7-16.65ZM7.9-33.7L7.9 0 3.85 0 3.85-33.7 7.9-33.7ZM50.9-3.65L50.9 0 32.5 0 32.5-33.7 36.55-33.7 36.55-3.65 50.9-3.65ZM75.15-3.55L75.15 0 56.35 0 56.35-33.7 74.9-33.7 74.9-30.15 60.4-30.15 60.4-18.6 73.2-18.6 73.2-15.05 60.4-15.05 60.4-3.55 75.15-3.55ZM88.44-14.2L88.44-14.2 87.79-12.3 99.74-12.3 99.09-14.25 93.84-30.45Q93.24-28.3 88.44-14.2ZM86.64-8.85L83.64 0 79.29 0 91.04-33.7 96.64-33.7 108.19 0 103.84 0 100.89-8.85 86.64-8.85ZM122.49-30.2L122.49-30.2 117.84-30.2 117.84-16.75 122.94-16.75Q126.39-16.75 128.22-18.63 130.04-20.5 130.04-23.45L130.04-23.45Q130.04-30.2 122.49-30.2ZM123.09-13.3L122.69-13.3 117.84-13.3 117.84 0 113.79 0 113.79-33.7 122.24-33.7Q128.09-33.7 131.12-30.95 134.14-28.2 134.14-23.35L134.14-23.35Q134.04-19.85 132.29-17.4 130.54-14.95 127.34-13.95L127.34-13.95 136.19 0 131.34 0 123.09-13.3ZM160.49-33.7L160.49-30.15 151.39-30.15 151.39 0 147.34 0 147.34-30.15 138.24-30.15 138.24-33.7 160.49-33.7ZM184.09-3.55L184.09 0 165.28 0 165.28-33.7 183.84-33.7 183.84-30.15 169.34-30.15 169.34-18.6 182.13-18.6 182.13-15.05 169.34-15.05 169.34-3.55 184.09-3.55ZM199.03-30.2L199.03-30.2 194.38-30.2 194.38-16.75 199.48-16.75Q202.93-16.75 204.76-18.63 206.58-20.5 206.58-23.45L206.58-23.45Q206.58-30.2 199.03-30.2ZM199.63-13.3L199.23-13.3 194.38-13.3 194.38 0 190.33 0 190.33-33.7 198.78-33.7Q204.63-33.7 207.66-30.95 210.68-28.2 210.68-23.35L210.68-23.35Q210.58-19.85 208.83-17.4 207.08-14.95 203.88-13.95L203.88-13.95 212.73 0 207.88 0 199.63-13.3ZM226.43-30.2L226.43-30.2 221.78-30.2 221.78-16.75 226.88-16.75Q230.33-16.75 232.16-18.63 233.98-20.5 233.98-23.45L233.98-23.45Q233.98-30.2 226.43-30.2ZM227.03-13.3L226.63-13.3 221.78-13.3 221.78 0 217.73 0 217.73-33.7 226.18-33.7Q232.03-33.7 235.06-30.95 238.08-28.2 238.08-23.35L238.08-23.35Q237.98-19.85 236.23-17.4 234.48-14.95 231.28-13.95L231.28-13.95 240.13 0 235.28 0 227.03-13.3ZM252.18-14.2L252.18-14.2 251.53-12.3 263.48-12.3 262.83-14.25 257.58-30.45Q256.98-28.3 252.18-14.2ZM250.38-8.85L247.38 0 243.03 0 254.78-33.7 260.38-33.7 271.93 0 267.58 0 264.63-8.85 250.38-8.85Z" opacity="1" transform="matrix(1,0,0,1,0,0)" fill="#096a2e" class="undefined-text-0" data-fill-palette-color="quaternary" id="text-0"></path></svg></g></svg></g></svg></g></svg></g><g transform="matrix(1,0,0,1,94.6021707228895,0)"><svg viewBox="0 0 23.954099781378112 37.02914340413607" height="37.02914340413607" width="23.954099781378112"><g><svg xmlns:dc="http://purl.org/dc/elements/1.1/" xmlns:cc="http://creativecommons.org/ns#" xmlns:rdf="http://www.w3.org/1999/02/22-rdf-syntax-ns#" xmlns:svg="http://www.w3.org/2000/svg" xmlns="http://www.w3.org/2000/svg" xmlns:sodipodi="http://sodipodi.sourceforge.net/DTD/sodipodi-0.dtd" xmlns:inkscape="http://www.inkscape.org/namespaces/inkscape" viewBox="20.87287712097168 5 58.22087097167969 90" version="1.1" x="0" y="0" height="37.02914340413607" width="23.954099781378112" class="icon-icon-0" data-fill-palette-color="quaternary" id="icon-0"><path d="M49.969 5C30.72 5 20.705 20 20.875 35 21.111 56.833 42.701 65 49.969 95 57.248 65 79.094 56.358 79.094 35 79.094 20 67.788 5 49.969 5zM50 12.5L67 29.5 33 29.5 50 12.5zM37.969 31.625L62 31.625 62 55.688 37.969 55.688 37.969 31.625zM42.063 35.719L42.063 42.469 48.781 42.469 48.781 35.719 42.063 35.719zM51.188 35.719L51.188 42.469 57.938 42.469 57.938 35.719 51.188 35.719zM42.063 44.844L42.063 51.594 48.781 51.594 48.781 44.844 42.063 44.844zM51.188 44.844L51.188 51.594 57.938 51.594 57.938 44.844 51.188 44.844z" fill="#096a2e" data-fill-palette-color="quaternary"></path></svg></g></svg></g><g></g></svg></g></svg></g></svg></g></svg></g><defs></defs></svg><rect width="342.85155851775386" height="342.85155851775386" fill="none" stroke="none" visibility="hidden"></rect></g></svg></g></svg>